<svg id="Layer_1" enable-background="new 0 0 512.005 512.005" height="512" viewBox="0 0 512.005 512.005" width="512" xmlns="http://www.w3.org/2000/svg"><g><g><g><path d="m446.265 237.886c-13.399 0-27.085-3.427-39.254-10.186-3.005-1.669-5.345-4.319-6.63-7.507l-71.028-176.284c-2.302-5.713-.877-12.253 3.593-16.491 14.526-13.771 30.078-22.468 46.226-25.85 14.767-3.092 29.922-1.563 43.826 4.422 29.714 12.79 51.26 44.81 51.232 76.135-.003 3.988-.139 8.344-.282 12.956-1.141 36.751.041 67.624 26.17 73.173 8.006 1.7 13.171 9.504 11.608 17.538-4.038 20.754-16.477 36.941-35.024 45.578-9.363 4.359-19.81 6.516-30.437 6.516z" fill="#ff8856"/></g></g><g><path d="m65.738 237.883c-10.669 0-21.151-2.171-30.536-6.561-18.491-8.648-30.894-24.818-34.924-45.53-1.563-8.034 3.602-15.838 11.608-17.538 26.129-5.549 27.311-36.421 26.17-73.173-.143-4.611-.278-8.967-.282-12.956-.027-31.325 21.519-63.345 51.233-76.135 13.905-5.984 29.06-7.514 43.826-4.422 16.147 3.381 31.7 12.078 46.226 25.85 4.473 4.241 5.896 10.786 3.588 16.501l-71.221 176.39c-1.292 3.2-3.647 5.856-6.67 7.521-12.106 6.672-25.707 10.053-39.018 10.053z" fill="#fdbf00"/></g><g><path d="m450.003 511.995h-388c-8.284 0-15-6.716-15-15v-38.985c0-80.519 65.507-146.026 146.026-146.026h125.948c80.519 0 146.026 65.507 146.026 146.026v38.984c0 8.285-6.716 15.001-15 15.001z" fill="#ff3980"/></g><path d="m318.976 311.984h-63.678v200.011h194.705c8.284 0 15-6.716 15-15v-38.985c0-80.519-65.508-146.026-146.027-146.026z" fill="#c09"/><g><path clip-rule="evenodd" d="m256.002 216.161c31.351 0 57 25.65 57 57v79.742c0 31.35-25.65 57-57 57h-.001c-31.35 0-57-25.65-57-57v-79.742c.001-31.35 25.651-57 57.001-57z" fill="#ffd1a1" fill-rule="evenodd"/></g><g><g><path d="m256.003 359.995c-96.495 0-175-78.505-175-175 0-16.808 2.382-33.071 6.826-48.468 21.069-72.995 314.724-73.434 336.086-.9 4.613 15.662 7.088 32.231 7.088 49.367 0 96.496-78.505 175.001-175 175.001z" fill="#ffe4c0"/></g></g><path clip-rule="evenodd" d="m256.003 216.161c-.237 0-.469.015-.705.018v193.707c.235.003.468.018.704.018h.001c31.35 0 57-25.65 57-57v-79.742c-.001-31.351-25.65-57.001-57-57.001z" fill="#ffbb82" fill-rule="evenodd"/><path d="m423.914 135.627c-10.702-36.339-89.744-54.36-168.616-54.121v278.48c.235.001.469.009.705.009 96.495 0 175-78.505 175-175 0-17.137-2.476-33.706-7.089-49.368z" fill="#ffd1a1"/><path d="m256.003 9.994c-82.367 0-151.615 57.205-170.13 133.968.755.339 1.531.636 2.344.848 13.189 3.44 26.845 5.184 40.588 5.184 49.706 0 96.344-23.2 126.493-61.782 30.149 38.582 76.787 61.782 126.493 61.782 14.29 0 28.469-1.884 42.144-5.598.736-.2 1.437-.466 2.117-.765-18.635-76.596-87.801-133.637-170.049-133.637z" fill="#ffdb00"/><g><path d="m230.063 218.496c-3.206 0-6.435-1.022-9.167-3.136-6.553-5.069-7.755-14.49-2.687-21.042 8.984-11.613 23.112-18.547 37.793-18.547 14.755 0 28.448 6.654 37.566 18.255 5.119 6.513 3.989 15.943-2.524 21.063s-15.942 3.989-21.063-2.524c-3.393-4.317-8.489-6.793-13.979-6.793-5.463 0-10.721 2.58-14.064 6.902-2.955 3.82-7.392 5.822-11.875 5.822z" fill="#00347b"/></g><path d="m293.568 194.026c-9.119-11.602-22.811-18.255-37.566-18.255-.235 0-.469.017-.704.021v30c.234-.01.469-.021.704-.021 5.491 0 10.586 2.476 13.979 6.793 5.12 6.514 14.55 7.645 21.063 2.524 6.513-5.119 7.644-14.549 2.524-21.062z" fill="#001737"/><g><path d="m199.003 246.995c-24.813 0-45-20.187-45-45s20.187-45 45-45 45 20.187 45 45-20.187 45-45 45zm0-60c-8.271 0-15 6.729-15 15s6.729 15 15 15 15-6.729 15-15-6.729-15-15-15z" fill="#00429d"/></g><g><path d="m313.003 246.995c-24.813 0-45-20.187-45-45s20.187-45 45-45 45 20.187 45 45-20.187 45-45 45zm0-60c-8.271 0-15 6.729-15 15s6.729 15 15 15 15-6.729 15-15-6.729-15-15-15z" fill="#00347b"/></g><path d="m256.003 9.994c-.235 0-.469.007-.705.008v78.211c30.149 38.582 76.787 61.782 126.493 61.782 14.29 0 28.469-1.884 42.144-5.598.736-.2 1.437-.466 2.117-.765-18.635-76.597-87.801-133.638-170.049-133.638z" fill="#ffbf00"/></g></svg>