<svg id="Layer_1" enable-background="new 0 0 512 512" height="512" viewBox="0 0 512 512" width="512" xmlns="http://www.w3.org/2000/svg"><g><g><path d="m450 512h-62l-128.702-76.234-135.298 76.234h-62c-8.284 0-15-6.716-15-15v-38.984c0-55.357 30.962-103.618 76.479-128.376 20.689-11.253 243.958-11.36 264.524-.281 45.799 24.672 76.997 73.09 76.997 128.657v38.984c0 8.284-6.716 15-15 15z" fill="#006eff"/></g><path d="m388.003 329.359c-10.271-5.533-71.1-8.276-132.002-8.234v116.499l3.297-1.858 128.702 76.234h62c8.284 0 15-6.716 15-15v-38.984c0-55.567-31.198-103.985-76.997-128.657z" fill="#0050c3"/><path d="m124 512h264v-182.635c-20.566-11.079-44.074-17.375-69.026-17.375h-125.948c-24.952 0-48.46 6.296-69.026 17.375z" fill="#bee75e"/><path d="m318.974 311.989h-62.974v200.011h132v-182.635c-20.566-11.08-44.074-17.376-69.026-17.376z" fill="#00cb75"/><g><path clip-rule="evenodd" d="m256 206c31.351 0 57 25.65 57 57v79.743c0 31.35-25.65 57-57 57-31.35 0-57-25.65-57-57v-79.743c0-31.35 25.65-57 57-57z" fill="#ffd1a1" fill-rule="evenodd"/></g><path clip-rule="evenodd" d="m256 206v193.743c31.35 0 57-25.65 57-57v-79.743c0-31.35-25.65-57-57-57z" fill="#ffbb82" fill-rule="evenodd"/><path d="m97.779 100.277c-10.752 22.674-16.779 48.007-16.779 74.723 0 96.495 78.505 175 175 175 96.496 0 175-78.505 175-175 0-26.717-6.027-52.05-16.779-74.724h-316.442z" fill="#ffe4c0"/><path d="m414.222 100.277h-158.222v249.723c96.495 0 175-78.505 175-175 0-26.716-6.027-52.049-16.778-74.723z" fill="#ffd1a1"/><g><path d="m230.06 210.5c-3.205 0-6.435-1.023-9.167-3.136-6.553-5.068-7.756-14.489-2.688-21.042 8.983-11.614 23.112-18.547 37.794-18.547 14.755 0 28.447 6.654 37.566 18.255 5.119 6.513 3.989 15.943-2.524 21.063s-15.942 3.989-21.063-2.524c-3.393-4.317-8.488-6.793-13.979-6.793-5.464 0-10.721 2.58-14.064 6.902-2.955 3.821-7.391 5.822-11.875 5.822z" fill="#00347b"/></g><path d="m293.566 186.031c-9.119-11.601-22.81-18.255-37.565-18.255v30c5.491 0 10.586 2.476 13.979 6.793 5.12 6.513 14.549 7.645 21.063 2.524 6.512-5.119 7.642-14.549 2.523-21.062z" fill="#001737"/><g><path d="m199 239c-24.813 0-45-20.187-45-45s20.187-45 45-45 45 20.187 45 45-20.187 45-45 45zm0-60c-8.271 0-15 6.729-15 15s6.729 15 15 15 15-6.729 15-15-6.729-15-15-15z" fill="#00429d"/></g><g><path d="m313 239c-24.813 0-45-20.187-45-45s20.187-45 45-45 45 20.187 45 45-20.187 45-45 45zm0-60c-8.271 0-15 6.729-15 15s6.729 15 15 15 15-6.729 15-15-6.729-15-15-15z" fill="#00347b"/></g><path d="m256 0c-80.218 0-147.995 54.257-168.581 127.999h95.581c5.281 0 10.172-2.777 12.879-7.311l8.535-14.294 11.704 15.613c2.833 3.778 7.279 6.002 12.002 6.002h59.88c4.646 0 9.03-2.153 11.871-5.831l5.303-6.865 5.587 7.024c2.846 3.578 7.168 5.662 11.739 5.662h102.082c-20.586-73.741-88.363-127.999-168.582-127.999z" fill="#00317e"/><path d="m256 0v128.009h32c4.646 0 9.03-2.153 11.871-5.831l5.303-6.865 5.587 7.024c2.846 3.578 7.168 5.662 11.739 5.662h102.082c-20.585-73.741-88.363-127.999-168.582-127.999z" fill="#001035"/></g></svg>