<svg xmlns="http://www.w3.org/2000/svg" width="43.985" height="44.15" viewBox="0 0 43.985 44.15">
  <g id="tools-and-utensils" transform="translate(-336.96)">
    <g id="Group_2" data-name="Group 2" transform="translate(336.96)">
      <path id="Path_1" data-name="Path 1" d="M43.459,34.792l-7.267-7.267a20.047,20.047,0,0,0,2.2-8.808A18.717,18.717,0,1,0,19.677,37.434a20.047,20.047,0,0,0,8.808-2.2L35.752,42.5a5.322,5.322,0,0,0,7.707,0A5.738,5.738,0,0,0,43.459,34.792ZM19.677,33.03A14.313,14.313,0,1,1,33.99,18.717,14.285,14.285,0,0,1,19.677,33.03Z" transform="translate(-0.96)" fill="#fff"/>
    </g>
  </g>
</svg>
